Coordinates
version=1
nRows=11
nColumns=36
inDegrees=yes

Units are S.I. units (second, meters, Newtons, ...)
If the header above contains a line with 'inDegrees', this indicates whether rotational values are in degrees (yes) or radians (no).

endheader
time	pelvis_tilt	pelvis_list	pelvis_rotation	pelvis_tx	pelvis_ty	pelvis_tz	hip_flexion_r	hip_adduction_r	hip_rotation_r	knee_angle_r	knee_angle_r_beta	ankle_angle_r	subtalar_angle_r	mtp_angle_r	hip_flexion_l	hip_adduction_l	hip_rotation_l	knee_angle_l	knee_angle_l_beta	ankle_angle_l	subtalar_angle_l	mtp_angle_l	lumbar_extension	lumbar_bending	lumbar_rotation	arm_flex_r	arm_add_r	arm_rot_r	elbow_flex_r	pro_sup_r	arm_flex_l	arm_add_l	arm_rot_l	elbow_flex_l	pro_sup_l
      7.61666670	    -30.80564097	     -6.74561305	     15.15493034	      1.22495857	      0.71037113	      0.15928438	     79.80837043	    -21.21289461	     -5.67707466	     79.06286519	      1.37990731	     36.08329792	      5.72085554	     -7.49999987	     76.57342450	    -14.05994229	     -6.79631281	     76.06037108	      1.32750391	     38.83426760	     15.26506143	     -7.49999987	     -6.54854846	     -0.84504987	      0.79733064	     60.99896690	     -2.31130397	     67.29619681	    119.35278688	     90.34035564	     76.05893284	      5.01154373	     79.83202531	    111.82167164	     99.02156572
      7.63333330	    -31.64595892	     -7.24648380	     15.35664120	      1.23077452	      0.70532221	      0.16090990	     81.60895646	    -21.59113304	     -5.77131100	     80.42093682	      1.40361013	     36.47582247	      5.76821808	     -7.49999987	     78.54056001	    -14.35598992	     -6.57743489	     77.35295201	      1.35006370	     39.06121834	     15.24202951	     -7.49999987	     -6.71399930	     -0.69901716	      1.10407399	     60.46898686	     -2.72123829	     68.33031796	    119.72628764	     90.53955086	     75.49046846	      5.11385707	     80.24393298	    112.03184688	     99.12403851
      7.65000000	    -32.27083535	     -7.66341153	     15.56554155	      1.22999358	      0.69854545	      0.15970098	     83.21255956	    -22.03477589	     -5.82042782	     81.81108795	      1.42787285	     36.83418413	      5.83861763	     -7.49999987	     80.25305127	    -14.61201178	     -6.39565482	     78.66870363	      1.37302790	     39.37729701	     15.39157171	     -7.49999987	     -7.30409536	     -0.39280345	      1.21938790	     60.57834961	     -3.02475815	     68.76133900	    119.64463169	     89.18897436	     75.42584359	      5.15812524	     80.02043140	    110.54028869	     97.53991670
      7.66666670	    -32.89715337	     -8.17363947	     15.76791175	      1.22968316	      0.69295364	      0.15959166	     84.58877657	    -22.43274298	     -5.98674786	     82.95445192	      1.44782832	     37.19008876	      5.72495125	     -7.49999987	     81.86586202	    -14.75608118	     -6.03549529	     79.78594933	      1.39252751	     39.71241300	     15.33435746	     -7.49999987	     -7.77868842	     -0.03215699	      1.86342298	     61.30808647	     -3.73311995	     70.85042047	    120.14745867	     89.48052113	     75.02263951	      6.24862922	     80.29438823	    109.88250194	     97.44797363
      7.68333330	    -33.36958139	     -8.65333120	     15.98826525	      1.22504925	      0.68522888	      0.16192012	     85.86983696	    -22.77093915	     -6.03654190	     84.18589418	      1.46932104	     37.51988169	      5.71463036	     -7.49999987	     83.45580959	    -14.95211989	     -5.73827248	     81.02056809	      1.41407567	     39.91477353	     15.27899934	     -7.49999987	     -8.39041111	      0.27217935	      1.96247053	     62.17286376	     -4.14927309	     72.26867479	    120.36252599	     89.76525615	     75.93949267	      6.46226038	     80.49182120	    109.60096285	     97.60187048
      7.70000000	    -33.45503521	     -8.85165204	     16.18132121	      1.22528818	      0.67784329	      0.16232099	     86.77371148	    -23.05654660	     -5.87218715	     85.50005200	      1.49225742	     37.79414429	      5.55735761	     -7.49999987	     84.45465792	    -15.17665126	     -5.59056760	     82.22422196	      1.43508340	     40.11605466	     15.19220926	     -7.49999987	     -9.44087617	      0.48779737	      1.99752256	     62.38474432	     -4.39137828	     72.50661429	    120.32964685	     89.82256754	     76.09459210	      6.34471583	     80.60047307	    109.42145837	     97.64906176
      7.71666670	    -34.36130997	     -9.52106204	     16.36156329	      1.22243185	      0.67367290	      0.15652695	     88.50428827	    -23.50155686	     -6.00256134	     86.60816180	      1.51159758	     38.22370988	      5.68867895	     -7.49999987	     86.63129537	    -15.10764962	     -5.07235422	     83.42413110	      1.45602576	     40.43055814	     15.00885294	     -7.49999987	     -9.65141929	      1.03250281	      1.92564310	     64.50797019	     -5.88572049	     74.79231886	    121.24222026	     90.07655510	     77.69718297	      7.13164053	     80.81106595	    108.35276822	     97.77308368
      7.73333330	    -34.76959837	     -9.91366417	     16.51400483	      1.21810620	      0.66816082	      0.16087249	     89.66698669	    -23.81311965	     -5.98657424	     87.59835747	      1.52887976	     38.39710517	      5.70620887	     -7.49999987	     88.08550734	    -15.13755267	     -4.78769652	     84.45950233	      1.47409640	     40.54903411	     14.84659052	     -7.49999987	    -10.66835434	      1.38043114	      2.16425851	     65.16566025	     -6.15294839	     74.95440659	    119.99359282	     90.05609539	     78.50292792	      7.27738046	     80.84497168	    106.90688359	     97.81043389
      7.75000000	    -35.37965216	    -10.32879322	     16.65730615	      1.20699148	      0.65945165	      0.16246499	     91.29090079	    -24.14629350	     -5.83529329	     88.72950350	      1.54862198	     38.45201144	      5.68321601	     -7.49999987	     89.96869285	    -15.09150426	     -4.51544860	     85.61302682	      1.49422920	     40.46546265	     14.48992325	     -7.49999987	    -11.47171978	      1.74903472	      2.32348502	     66.70660162	     -6.61539665	     75.19584040	    120.12531430	     89.88134601	     79.91194105	      7.36247481	     80.45012040	    106.60791910	     97.71189109
      7.76666670	    -35.82389352	    -10.73488804	     16.79465332	      1.21203718	      0.65554203	      0.15938044	     92.51350914	    -24.46865639	     -5.81786640	     89.59644214	      1.56375291	     38.57978683	      5.71854249	     -7.49999987	     91.47743821	    -14.99785784	     -4.18128230	     86.53298287	      1.51028546	     40.39076242	     14.02874620	     -7.49999987	    -12.38545038	      2.19281890	      2.72089434	     66.86007436	     -7.14981116	     75.04136231	    118.93898670	     89.62386008	     79.83560889	      7.32398053	     80.97566514	    106.50056108	     97.72184735
      7.78333330	    -36.19882388	    -11.05257615	     16.94462657	      1.20725411	      0.64837836	      0.16253382	     93.76189618	    -24.75372206	     -5.62768711	     90.53112246	      1.58006616	     38.62109883	      5.66162385	     -7.49999987	     92.88127983	    -14.94648303	     -3.96162181	     87.45378242	      1.52635645	     40.38250569	     13.72233520	     -7.49999987	    -13.38126255	      2.46403259	      2.96371840	     67.75602848	     -7.08678456	     74.59078133	    118.74004541	     89.52214606	     80.61880169	      7.73562997	     80.11362818	    106.44795654	     97.66148782
